# xmcd CD database file
#
# Track frame offsets:
#	175
#	14027
#	32860
#	50612
#	68522
#	80332
#	94190
#	105567
#	122122
#	137057
#	146805
#
# Disc length: 2253 seconds
#
# Revision: 2
# Processed by: cddbd v1.4PL0 Copyright (c) Steve Scherf et al.
# Submitted via: CDex 1.50Beta6
#
DISCID=9a08cb0b
DTITLE=The Flying Burrito Brothers - The Gilded Palace of Sin
DYEAR=1968
DGENRE=Country
TTITLE0=Christine's Tune
TTITLE1=Sin City
TTITLE2=Do Right Woman
TTITLE3=Dark End of the Street
TTITLE4=My Uncle
TTITLE5=Wheels
TTITLE6=Juanita
TTITLE7=Hot Burrito No.1
TTITLE8=Hot Burrito No.2
TTITLE9=Do You Know How It Feels
TTITLE10=Hippie Boy
EXTD=YEAR: 1968
EXTT0=
EXTT1=
EXTT2=
EXTT3=
EXTT4=
EXTT5=
EXTT6=
EXTT7=
EXTT8=
EXTT9=
EXTT10=
PLAYORDER=
